<svg width="280" height="68" viewBox="0 0 260 64" xmlns="http://www.w3.org/2000/svg" role="img" aria-label="Mycelio">
  <title>Mycelio</title>
  <defs>
    <linearGradient id="hyphaG" x1="0%" y1="50%" x2="100%" y2="50%">
      <stop offset="0%" stop-color="#059669" stop-opacity="1"/>
      <stop offset="100%" stop-color="#10b981" stop-opacity="0.6"/>
    </linearGradient>
  </defs>
  <g stroke="url(#hyphaG)" stroke-linecap="round" fill="none">
    <path d="M20 32 Q34 32 46 14" stroke-width="2"/>
    <path d="M20 32 Q34 32 46 50" stroke-width="2"/>
    <path d="M20 32 L52 32" stroke-width="2"/>
    <path d="M46 14 Q56 11 64 6" stroke-width="1.3"/>
    <path d="M46 50 Q56 53 64 58" stroke-width="1.3"/>
    <path d="M52 32 L70 32" stroke-width="1.3"/>
    <path d="M46 14 Q50 22 50 32" stroke-width="0.9" stroke-opacity="0.5"/>
    <path d="M46 50 Q50 42 50 32" stroke-width="0.9" stroke-opacity="0.5"/>
  </g>
  <g fill="#059669">
    <circle cx="20" cy="32" r="5"/>
  </g>
  <g fill="#10b981">
    <circle cx="46" cy="14" r="3"/>
    <circle cx="46" cy="50" r="3"/>
    <circle cx="52" cy="32" r="2.5"/>
    <circle cx="64" cy="6" r="1.8" fill-opacity="0.75"/>
    <circle cx="64" cy="58" r="1.8" fill-opacity="0.75"/>
    <circle cx="70" cy="32" r="1.8" fill-opacity="0.75"/>
  </g>
  <text x="88" y="42" font-family="ui-monospace, 'SF Mono', 'JetBrains Mono', Menlo, Consolas, monospace" font-size="28" font-weight="600" fill="#0b0d10" letter-spacing="-0.5">mycelio</text>
</svg>
